P3
16 16
255
255 0 0 255 165 0 255 255 0 0 255 0 0 255 255 0 0 255 128 0 128 255 0 255 255 192 203 255 20 147 75 0 130 138 43 226 139 69 19 255 99 71 0 0 0 255 255 255 
255 165 0 255 255 0 0 255 0 0 255 255 0 0 255 128 0 128 255 0 255 255 192 203 255 20 147 75 0 130 138 43 226 139 69 19 255 99 71 0 0 0 255 255 255 255 0 0 
255 255 0 0 255 0 0 255 255 0 0 255 128 0 128 255 0 255 255 192 203 255 20 147 75 0 130 138 43 226 139 69 19 255 99 71 0 0 0 255 255 255 255 0 0 255 165 0 
0 255 0 0 255 255 0 0 255 128 0 128 255 0 255 255 192 203 255 20 147 75 0 130 138 43 226 139 69 19 255 99 71 0 0 0 255 255 255 255 0 0 255 165 0 255 255 0 
0 255 255 0 0 255 128 0 128 255 0 255 255 192 203 255 20 147 75 0 130 138 43 226 139 69 19 255 99 71 0 0 0 255 255 255 255 0 0 255 165 0 255 255 0 0 255 0 
0 0 255 128 0 128 255 0 255 255 192 203 255 20 147 75 0 130 138 43 226 139 69 19 255 99 71 0 0 0 255 255 255 255 0 0 255 165 0 255 255 0 0 255 0 0 255 255 
128 0 128 255 0 255 255 192 203 255 20 147 75 0 130 138 43 226 139 69 19 255 99 71 0 0 0 255 255 255 255 0 0 255 165 0 255 255 0 0 255 0 0 255 255 0 0 255 
255 0 255 255 192 203 255 20 147 75 0 130 138 43 226 139 69 19 255 99 71 0 0 0 255 255 255 255 0 0 255 165 0 255 255 0 0 255 0 0 255 255 0 0 255 128 0 128 
255 192 203 255 20 147 75 0 130 138 43 226 139 69 19 255 99 71 0 0 0 255 255 255 255 0 0 255 165 0 255 255 0 0 255 0 0 255 255 0 0 255 128 0 128 255 0 255 
255 20 147 75 0 130 138 43 226 139 69 19 255 99 71 0 0 0 255 255 255 255 0 0 255 165 0 255 255 0 0 255 0 0 255 255 0 0 255 128 0 128 255 0 255 255 192 203 
75 0 130 138 43 226 139 69 19 255 99 71 0 0 0 255 255 255 255 0 0 255 165 0 255 255 0 0 255 0 0 255 255 0 0 255 128 0 128 255 0 255 255 192 203 255 20 147 
138 43 226 139 69 19 255 99 71 0 0 0 255 255 255 255 0 0 255 165 0 255 255 0 0 255 0 0 255 255 0 0 255 128 0 128 255 0 255 255 192 203 255 20 147 75 0 130 
139 69 19 255 99 71 0 0 0 255 255 255 255 0 0 255 165 0 255 255 0 0 255 0 0 255 255 0 0 255 128 0 128 255 0 255 255 192 203 255 20 147 75 0 130 138 43 226 
255 99 71 0 0 0 255 255 255 255 0 0 255 165 0 255 255 0 0 255 0 0 255 255 0 0 255 128 0 128 255 0 255 255 192 203 255 20 147 75 0 130 138 43 226 139 69 19 
0 0 0 255 255 255 255 0 0 255 165 0 255 255 0 0 255 0 0 255 255 0 0 255 128 0 128 255 0 255 255 192 203 255 20 147 75 0 130 138 43 226 139 69 19 255 99 71 
255 255 255 255 0 0 255 165 0 255 255 0 0 255 0 0 255 255 0 0 255 128 0 128 255 0 255 255 192 203 255 20 147 75 0 130 138 43 226 139 69 19 255 99 71 0 0 0 
