P3
16 16
255
255 255 0 128 0 128 75 0 130 0 0 0 255 255 0 128 0 128 75 0 130 0 0 0 255 255 0 128 0 128 75 0 130 0 0 0 255 255 0 128 0 128 75 0 130 0 0 0 
255 165 0 0 0 255 255 20 147 255 99 71 255 165 0 0 0 255 255 20 147 255 99 71 255 165 0 0 0 255 255 20 147 255 99 71 255 165 0 0 0 255 255 20 147 255 99 71 
255 0 0 0 255 255 255 192 203 139 69 19 255 0 0 0 255 255 255 192 203 139 69 19 255 0 0 0 255 255 255 192 203 139 69 19 255 0 0 0 255 255 255 192 203 139 69 19 
255 255 255 0 255 0 255 0 255 138 43 226 255 255 255 0 255 0 255 0 255 138 43 226 255 255 255 0 255 0 255 0 255 138 43 226 255 255 255 0 255 0 255 0 255 138 43 226 
0 0 0 255 255 0 128 0 128 75 0 130 0 0 0 255 255 0 128 0 128 75 0 130 0 0 0 255 255 0 128 0 128 75 0 130 0 0 0 255 255 0 128 0 128 75 0 130 
255 99 71 255 165 0 0 0 255 255 20 147 255 99 71 255 165 0 0 0 255 255 20 147 255 99 71 255 165 0 0 0 255 255 20 147 255 99 71 255 165 0 0 0 255 255 20 147 
139 69 19 255 0 0 0 255 255 255 192 203 139 69 19 255 0 0 0 255 255 255 192 203 139 69 19 255 0 0 0 255 255 255 192 203 139 69 19 255 0 0 0 255 255 255 192 203 
138 43 226 255 255 255 0 255 0 255 0 255 138 43 226 255 255 255 0 255 0 255 0 255 138 43 226 255 255 255 0 255 0 255 0 255 138 43 226 255 255 255 0 255 0 255 0 255 
75 0 130 0 0 0 255 255 0 128 0 128 75 0 130 0 0 0 255 255 0 128 0 128 75 0 130 0 0 0 255 255 0 128 0 128 75 0 130 0 0 0 255 255 0 128 0 128 
255 20 147 255 99 71 255 165 0 0 0 255 255 20 147 255 99 71 255 165 0 0 0 255 255 20 147 255 99 71 255 165 0 0 0 255 255 20 147 255 99 71 255 165 0 0 0 255 
255 192 203 139 69 19 255 0 0 0 255 255 255 192 203 139 69 19 255 0 0 0 255 255 255 192 203 139 69 19 255 0 0 0 255 255 255 192 203 139 69 19 255 0 0 0 255 255 
255 0 255 138 43 226 255 255 255 0 255 0 255 0 255 138 43 226 255 255 255 0 255 0 255 0 255 138 43 226 255 255 255 0 255 0 255 0 255 138 43 226 255 255 255 0 255 0 
128 0 128 75 0 130 0 0 0 255 255 0 128 0 128 75 0 130 0 0 0 255 255 0 128 0 128 75 0 130 0 0 0 255 255 0 128 0 128 75 0 130 0 0 0 255 255 0 
0 0 255 255 20 147 255 99 71 255 165 0 0 0 255 255 20 147 255 99 71 255 165 0 0 0 255 255 20 147 255 99 71 255 165 0 0 0 255 255 20 147 255 99 71 255 165 0 
0 255 255 255 192 203 139 69 19 255 0 0 0 255 255 255 192 203 139 69 19 255 0 0 0 255 255 255 192 203 139 69 19 255 0 0 0 255 255 255 192 203 139 69 19 255 0 0 
0 255 0 255 0 255 138 43 226 255 255 255 0 255 0 255 0 255 138 43 226 255 255 255 0 255 0 255 0 255 138 43 226 255 255 255 0 255 0 255 0 255 138 43 226 255 255 255 
