P3
16 16
255
170 170 170 115 115 115 85 85 85 170 170 170 85 85 85 170 170 170 169 169 169 85 85 85 38 38 38 114 114 114 186 186 186 119 119 119 179 179 179 113 113 113 255 255 255 0 0 0 
115 115 115 85 85 85 170 170 170 85 85 85 170 170 170 169 169 169 85 85 85 38 38 38 114 114 114 186 186 186 119 119 119 179 179 179 113 113 113 255 255 255 0 0 0 170 170 170 
85 85 85 170 170 170 85 85 85 170 170 170 169 169 169 85 85 85 38 38 38 114 114 114 186 186 186 119 119 119 179 179 179 113 113 113 255 255 255 0 0 0 170 170 170 115 115 115 
170 170 170 85 85 85 170 170 170 169 169 169 85 85 85 38 38 38 114 114 114 186 186 186 119 119 119 179 179 179 113 113 113 255 255 255 0 0 0 170 170 170 115 115 115 85 85 85 
85 85 85 170 170 170 169 169 169 85 85 85 38 38 38 114 114 114 186 186 186 119 119 119 179 179 179 113 113 113 255 255 255 0 0 0 170 170 170 115 115 115 85 85 85 170 170 170 
170 170 170 169 169 169 85 85 85 38 38 38 114 114 114 186 186 186 119 119 119 179 179 179 113 113 113 255 255 255 0 0 0 170 170 170 115 115 115 85 85 85 170 170 170 85 85 85 
169 169 169 85 85 85 38 38 38 114 114 114 186 186 186 119 119 119 179 179 179 113 113 113 255 255 255 0 0 0 170 170 170 115 115 115 85 85 85 170 170 170 85 85 85 170 170 170 
85 85 85 38 38 38 114 114 114 186 186 186 119 119 119 179 179 179 113 113 113 255 255 255 0 0 0 170 170 170 115 115 115 85 85 85 170 170 170 85 85 85 170 170 170 169 169 169 
38 38 38 114 114 114 186 186 186 119 119 119 179 179 179 113 113 113 255 255 255 0 0 0 170 170 170 115 115 115 85 85 85 170 170 170 85 85 85 170 170 170 169 169 169 85 85 85 
114 114 114 186 186 186 119 119 119 179 179 179 113 113 113 255 255 255 0 0 0 170 170 170 115 115 115 85 85 85 170 170 170 85 85 85 170 170 170 169 169 169 85 85 85 38 38 38 
186 186 186 119 119 119 179 179 179 113 113 113 255 255 255 0 0 0 170 170 170 115 115 115 85 85 85 170 170 170 85 85 85 170 170 170 169 169 169 85 85 85 38 38 38 114 114 114 
119 119 119 179 179 179 113 113 113 255 255 255 0 0 0 170 170 170 115 115 115 85 85 85 170 170 170 85 85 85 170 170 170 169 169 169 85 85 85 38 38 38 114 114 114 186 186 186 
179 179 179 113 113 113 255 255 255 0 0 0 170 170 170 115 115 115 85 85 85 170 170 170 85 85 85 170 170 170 169 169 169 85 85 85 38 38 38 114 114 114 186 186 186 119 119 119 
113 113 113 255 255 255 0 0 0 170 170 170 115 115 115 85 85 85 170 170 170 85 85 85 170 170 170 169 169 169 85 85 85 38 38 38 114 114 114 186 186 186 119 119 119 179 179 179 
255 255 255 0 0 0 170 170 170 115 115 115 85 85 85 170 170 170 85 85 85 170 170 170 169 169 169 85 85 85 38 38 38 114 114 114 186 186 186 119 119 119 179 179 179 113 113 113 
0 0 0 170 170 170 115 115 115 85 85 85 170 170 170 85 85 85 170 170 170 169 169 169 85 85 85 38 38 38 114 114 114 186 186 186 119 119 119 179 179 179 113 113 113 255 255 255 
