P2
8 8
255
0 32 64 96 128 160 192 224
32 64 96 128 160 192 224 255
64 96 128 160 192 224 255 0
96 128 160 192 224 255 0 32
128 160 192 224 255 0 32 64
160 192 224 255 0 32 64 96
192 224 255 0 32 64 96 128
224 255 0 32 64 96 128 160
