P2
16 16
255
255 200 150 100 50 0 50 100 150 200 255 200 150 100 50 0
200 150 100 50 0 50 100 150 200 255 200 150 100 50 0 50
150 100 50 0 50 100 150 200 255 200 150 100 50 0 50 100
100 50 0 50 100 150 200 255 200 150 100 50 0 50 100 150
50 0 50 100 150 200 255 200 150 100 50 0 50 100 150 200
0 50 100 150 200 255 200 150 100 50 0 50 100 150 200 255
50 100 150 200 255 200 150 100 50 0 50 100 150 200 255 200
100 150 200 255 200 150 100 50 0 50 100 150 200 255 200 150
150 200 255 200 150 100 50 0 50 100 150 200 255 200 150 100
200 255 200 150 100 50 0 50 100 150 200 255 200 150 100 50
255 200 150 100 50 0 50 100 150 200 255 200 150 100 50 0
200 150 100 50 0 50 100 150 200 255 200 150 100 50 0 50
150 100 50 0 50 100 150 200 255 200 150 100 50 0 50 100
100 50 0 50 100 150 200 255 200 150 100 50 0 50 100 150
50 0 50 100 150 200 255 200 150 100 50 0 50 100 150 200
0 50 100 150 200 255 200 150 100 50 0 50 100 150 200 255
