P3
16 16
255
0 0 0 0 255 255 0 90 255 0 0 255 255 0 255 255 0 0 255 255 0 127 255 127 0 255 0 0 63 52 0 235 108 180 255 125 117 212 29 116 186 236 0 156 184 255 255 255 
255 255 255 0 0 0 0 255 255 0 90 255 0 0 255 255 0 255 255 0 0 255 255 0 127 255 127 0 255 0 0 63 52 0 235 108 180 255 125 117 212 29 116 186 236 0 156 184 
0 156 184 255 255 255 0 0 0 0 255 255 0 90 255 0 0 255 255 0 255 255 0 0 255 255 0 127 255 127 0 255 0 0 63 52 0 235 108 180 255 125 117 212 29 116 186 236 
116 186 236 0 156 184 255 255 255 0 0 0 0 255 255 0 90 255 0 0 255 255 0 255 255 0 0 255 255 0 127 255 127 0 255 0 0 63 52 0 235 108 180 255 125 117 212 29 
117 212 29 116 186 236 0 156 184 255 255 255 0 0 0 0 255 255 0 90 255 0 0 255 255 0 255 255 0 0 255 255 0 127 255 127 0 255 0 0 63 52 0 235 108 180 255 125 
180 255 125 117 212 29 116 186 236 0 156 184 255 255 255 0 0 0 0 255 255 0 90 255 0 0 255 255 0 255 255 0 0 255 255 0 127 255 127 0 255 0 0 63 52 0 235 108 
0 235 108 180 255 125 117 212 29 116 186 236 0 156 184 255 255 255 0 0 0 0 255 255 0 90 255 0 0 255 255 0 255 255 0 0 255 255 0 127 255 127 0 255 0 0 63 52 
0 63 52 0 235 108 180 255 125 117 212 29 116 186 236 0 156 184 255 255 255 0 0 0 0 255 255 0 90 255 0 0 255 255 0 255 255 0 0 255 255 0 127 255 127 0 255 0 
0 255 0 0 63 52 0 235 108 180 255 125 117 212 29 116 186 236 0 156 184 255 255 255 0 0 0 0 255 255 0 90 255 0 0 255 255 0 255 255 0 0 255 255 0 127 255 127 
127 255 127 0 255 0 0 63 52 0 235 108 180 255 125 117 212 29 116 186 236 0 156 184 255 255 255 0 0 0 0 255 255 0 90 255 0 0 255 255 0 255 255 0 0 255 255 0 
255 255 0 127 255 127 0 255 0 0 63 52 0 235 108 180 255 125 117 212 29 116 186 236 0 156 184 255 255 255 0 0 0 0 255 255 0 90 255 0 0 255 255 0 255 255 0 0 
255 0 0 255 255 0 127 255 127 0 255 0 0 63 52 0 235 108 180 255 125 117 212 29 116 186 236 0 156 184 255 255 255 0 0 0 0 255 255 0 90 255 0 0 255 255 0 255 
255 0 255 255 0 0 255 255 0 127 255 127 0 255 0 0 63 52 0 235 108 180 255 125 117 212 29 116 186 236 0 156 184 255 255 255 0 0 0 0 255 255 0 90 255 0 0 255 
0 0 255 255 0 255 255 0 0 255 255 0 127 255 127 0 255 0 0 63 52 0 235 108 180 255 125 117 212 29 116 186 236 0 156 184 255 255 255 0 0 0 0 255 255 0 90 255 
0 90 255 0 0 255 255 0 255 255 0 0 255 255 0 127 255 127 0 255 0 0 63 52 0 235 108 180 255 125 117 212 29 116 186 236 0 156 184 255 255 255 0 0 0 0 255 255 
0 255 255 0 90 255 0 0 255 255 0 255 255 0 0 255 255 0 127 255 127 0 255 0 0 63 52 0 235 108 180 255 125 117 212 29 116 186 236 0 156 184 255 255 255 0 0 0 
