P1
# Създаден от SimplePBMProcessor
5 4
0 0 0 0 0
0 1 1 1 0
0 1 0 1 0
0 0 0 0 0
