P2
8 8
255
224 255 0 32 64 96 128 160 
192 224 255 0 32 64 96 128 
160 192 224 255 0 32 64 96 
128 160 192 224 255 0 32 64 
96 128 160 192 224 255 0 32 
64 96 128 160 192 224 255 0 
32 64 96 128 160 192 224 255 
0 32 64 96 128 160 192 224 
