P2
8 8
255
224 192 160 128 96 64 32 0 
255 224 192 160 128 96 64 32 
0 255 224 192 160 128 96 64 
32 0 255 224 192 160 128 96 
64 32 0 255 224 192 160 128 
96 64 32 0 255 224 192 160 
128 96 64 32 0 255 224 192 
160 128 96 64 32 0 255 224 
